<?xml version="1.0" standalone="no"?>
<!DOCTYPE svg PUBLIC "-//W3C//DTD SVG 20010904//EN"
 "http://www.w3.org/TR/2001/REC-SVG-20010904/DTD/svg10.dtd">
<svg version="1.0" xmlns="http://www.w3.org/2000/svg"
 width="1400.000000pt" height="1400.000000pt" viewBox="0 0 1400.000000 1400.000000"
 preserveAspectRatio="xMidYMid meet">
<metadata>
Created by potrace 1.16, written by Peter Selinger 2001-2019
</metadata>
<g transform="translate(0.000000,1400.000000) scale(0.100000,-0.100000)"
fill="#000000" stroke="none">
<path d="M0 7000 l0 -7000 7000 0 7000 0 0 7000 0 7000 -7000 0 -7000 0 0
-7000z m5200 4383 c135 -55 236 -120 325 -208 121 -120 175 -245 175 -405 0
-151 -29 -252 -135 -480 -98 -209 -119 -280 -120 -400 0 -82 4 -103 27 -152
36 -77 104 -141 198 -186 93 -44 90 -36 90 -247 0 -172 -21 -268 -87 -407 -26
-54 -49 -98 -52 -98 -3 0 -5 42 -3 94 2 52 -2 112 -8 134 -10 38 -16 44 -90
81 -234 117 -392 283 -468 493 -24 66 -27 86 -26 208 0 121 3 143 28 215 34
99 85 188 188 322 44 58 95 130 114 162 77 130 84 285 19 477 -44 132 -55 147
-55 73 0 -71 -31 -192 -69 -272 -40 -84 -108 -171 -247 -319 -241 -256 -311
-389 -344 -652 -59 -465 169 -844 697 -1158 68 -40 123 -75 123 -78 -1 -3 -33
-25 -73 -49 l-72 -43 -64 33 c-92 47 -243 150 -336 229 -296 251 -445 578
-445 975 0 226 30 357 113 495 53 90 100 149 256 324 165 186 212 249 261 349
75 152 74 281 -2 437 -23 47 -44 89 -46 94 -6 11 25 1 128 -41z m3685 -37
c-66 -132 -80 -237 -47 -357 35 -125 110 -235 317 -464 200 -221 285 -354 326
-510 29 -110 33 -416 6 -547 -49 -245 -151 -440 -321 -617 -121 -125 -271
-238 -442 -331 l-60 -34 -77 49 -76 48 87 50 c315 180 545 399 653 622 149
309 120 713 -71 995 -23 33 -98 122 -168 196 -70 75 -148 163 -174 196 -91
114 -139 237 -165 418 l-8 55 -40 -115 c-38 -111 -39 -120 -40 -245 0 -123 1
-133 30 -195 16 -36 79 -130 138 -210 174 -232 222 -350 221 -545 0 -128 -16
-191 -75 -306 -81 -156 -242 -305 -415 -385 -78 -36 -84 -42 -96 -79 -7 -22
-12 -83 -12 -136 -1 -111 -4 -110 -61 14 -60 131 -80 232 -79 402 0 83 3 161
7 175 5 19 25 34 79 59 97 45 187 134 214 211 26 75 24 194 -6 292 -12 40 -55
143 -95 228 -117 248 -153 395 -135 553 29 250 216 447 540 568 41 15 78 28
81 29 4 0 -13 -38 -36 -84z m-1650 -1076 c-3 -5 -11 -10 -18 -10 -6 0 -58 -14
-114 -32 l-103 -31 0 -1919 c0 -1055 2 -1918 5 -1918 5 0 143 117 237 200 l39
35 9 305 c5 168 9 306 9 307 1 1 31 5 69 9 61 6 289 58 298 67 2 2 -4 40 -13
85 l-17 82 -173 0 -173 0 0 100 c0 55 4 100 9 100 31 0 260 44 363 70 151 39
411 123 497 161 35 16 65 28 67 26 6 -6 -228 -140 -328 -186 -123 -58 -372
-144 -470 -162 -38 -7 -68 -16 -68 -20 0 -4 33 -10 73 -13 39 -4 112 -10 162
-14 l90 -7 25 -85 c14 -47 28 -92 32 -102 6 -14 17 -12 100 21 121 49 215 94
311 148 43 24 82 41 88 38 5 -4 8 -2 7 3 -2 6 44 42 102 80 58 39 139 98 180
133 l75 62 -55 -57 c-59 -62 -213 -196 -224 -196 -4 0 -4 5 0 12 4 7 3 8 -5 4
-6 -4 -9 -11 -6 -16 8 -12 -102 -91 -227 -163 -183 -105 -392 -183 -608 -227
-57 -12 -106 -22 -107 -23 -1 -2 -3 -134 -4 -294 -1 -201 -5 -297 -13 -307 -6
-7 -89 -69 -184 -135 l-173 -122 -147 102 c-81 56 -163 115 -183 130 l-36 28
-5 296 c-3 162 -7 297 -9 300 -3 2 -56 15 -120 29 -391 84 -728 264 -999 534
-74 74 -82 84 -35 45 139 -114 305 -223 463 -302 111 -56 321 -141 325 -133 2
4 16 50 32 103 l28 96 106 7 c216 13 274 26 179 39 -56 8 -283 77 -379 115
-140 56 -446 219 -434 231 2 2 37 -10 77 -27 111 -46 331 -117 470 -151 121
-30 367 -76 373 -69 4 4 13 607 26 1673 6 512 13 936 15 943 3 9 61 12 249 12
162 0 244 -3 240 -10z m-569 -562 c-4 -178 -8 -460 -11 -628 -3 -168 -8 -376
-12 -462 l-6 -158 -32 0 c-81 0 -354 35 -430 55 -16 5 -25 -5 -50 -52 -35 -69
-177 -219 -196 -208 -7 5 -10 4 -5 -3 9 -15 -100 -73 -207 -111 -116 -41 -128
-38 -40 7 87 45 219 147 274 213 23 27 46 46 51 42 6 -3 8 -1 5 4 -4 6 13 44
38 85 57 95 89 181 116 310 18 89 20 125 16 268 -6 168 -22 267 -77 450 l-21
72 23 26 c51 55 244 214 338 277 82 55 215 134 228 135 2 0 1 -145 -2 -322z
m874 198 c100 -66 218 -159 310 -244 72 -67 74 -70 62 -96 -16 -37 -67 -241
-83 -336 -22 -129 -17 -329 10 -450 28 -126 91 -266 161 -361 90 -121 231
-235 358 -289 29 -13 51 -24 49 -26 -8 -8 -195 60 -258 93 -96 50 -189 131
-241 210 -25 37 -49 79 -53 91 -6 20 -11 23 -33 17 -96 -24 -424 -63 -452 -53
-7 2 -14 26 -16 53 -4 58 -24 1212 -24 1393 l0 123 68 -37 c37 -21 101 -60
142 -88z m1020 -1494 c0 -5 -24 -45 -77 -129 l-33 -51 -57 30 c-32 17 -60 33
-62 34 -2 2 24 32 59 68 34 35 69 74 76 85 l15 21 39 -26 c22 -15 40 -29 40
-32z m-2971 -29 c39 -43 71 -81 71 -85 0 -4 -26 -21 -58 -37 l-58 -29 -50 81
c-27 45 -51 86 -53 91 -4 10 49 55 66 56 6 0 43 -35 82 -77z m2772 -565 c13
-25 7 -102 -11 -123 -23 -27 -56 -18 -74 20 -31 64 8 160 54 135 11 -6 25 -20
31 -32z m-2291 -185 c18 -23 21 -37 17 -76 -5 -58 -25 -82 -61 -73 -62 15 -48
173 16 176 4 0 16 -12 28 -27z m-216 -572 c208 -175 365 -252 520 -251 39 1
88 7 108 14 21 7 40 11 43 8 3 -3 5 -82 5 -175 l0 -171 31 -26 32 -26 -38 -52
c-36 -50 -38 -52 -85 -52 -63 0 -200 -26 -264 -51 -28 -10 -54 -19 -58 -19 -4
0 -24 33 -44 73 -20 39 -52 96 -70 125 -19 28 -30 52 -25 52 5 0 37 -9 71 -19
35 -11 59 -16 54 -12 -5 4 -44 33 -87 65 -99 75 -210 194 -265 285 l-42 72 12
114 c6 63 14 115 16 115 3 0 41 -31 86 -69z m2391 -48 c14 -119 13 -123 -48
-213 -71 -105 -157 -190 -313 -307 l-29 -22 63 21 c35 11 65 18 68 15 3 -3
-10 -29 -29 -58 -19 -30 -49 -83 -67 -119 -18 -36 -34 -67 -35 -68 -2 -2 -37
8 -79 22 -81 27 -219 56 -268 56 -21 0 -39 10 -59 32 -51 54 -53 63 -14 89
l35 24 0 177 0 176 47 -14 c174 -53 388 32 652 259 30 26 57 45 59 42 2 -2 10
-53 17 -112z m-1081 -1228 l93 -96 -36 -15 c-137 -58 -309 -59 -440 -2 l-46
19 55 48 c30 27 70 69 89 95 l35 46 79 0 78 0 93 -95z m-3601 -780 c51 -11 77
-22 77 -31 0 -20 163 -1235 209 -1549 21 -148 41 -263 44 -255 2 8 33 218 67
465 34 248 82 581 106 740 24 160 52 339 61 399 l16 108 44 -6 c23 -3 95 -15
158 -27 93 -18 115 -25 115 -39 0 -9 -38 -228 -85 -486 -73 -396 -194 -1117
-261 -1539 -9 -60 -18 -111 -19 -113 -1 -1 -74 -22 -161 -47 -87 -24 -180 -51
-206 -59 -47 -15 -48 -15 -53 7 -26 117 -355 2403 -355 2466 0 18 2 18 83 1
45 -10 117 -26 160 -35z m6913 -46 c133 -50 216 -189 239 -401 l7 -66 -150
-50 -150 -50 -7 47 c-11 78 -35 140 -71 177 -32 35 -36 36 -89 32 -62 -5 -97
-26 -133 -78 -63 -94 -70 -264 -15 -382 46 -98 79 -142 213 -281 121 -127 197
-231 250 -341 102 -216 129 -449 76 -659 -84 -327 -298 -425 -606 -275 -138
67 -234 178 -303 350 -28 71 -57 213 -57 281 l0 40 46 -7 c26 -3 91 -6 144 -6
l97 0 7 -61 c10 -85 40 -177 77 -232 74 -112 210 -115 277 -5 28 45 45 150 37
222 -15 133 -60 209 -265 441 -181 204 -231 271 -280 370 -55 109 -74 203 -66
330 7 121 26 196 74 295 46 94 159 211 249 258 133 70 294 90 399 51z m-5557
-208 l103 -16 -1 -465 c-1 -256 -4 -674 -7 -930 l-6 -465 -136 -27 c-76 -15
-143 -27 -149 -28 -15 0 -17 462 -6 1389 l6 572 46 -7 c25 -4 93 -14 150 -23z
m4331 -42 c81 -38 144 -99 182 -177 l33 -66 3 -182 3 -182 -98 -6 c-54 -3
-126 -8 -161 -10 l-63 -4 3 138 c3 127 1 141 -18 166 -37 50 -68 67 -126 67
-78 0 -151 -42 -184 -106 -16 -29 -26 -243 -40 -828 -7 -275 -7 -277 15 -313
57 -92 198 -120 269 -54 45 43 50 64 57 274 l8 201 -48 6 c-26 4 -63 7 -81 7
l-34 0 0 138 0 139 152 6 c83 4 193 7 245 7 90 0 93 -1 93 -23 0 -12 -4 -128
-10 -257 -5 -129 -12 -292 -14 -362 -8 -196 -28 -259 -114 -350 -167 -179
-491 -151 -703 61 -93 93 -131 166 -138 261 -6 89 19 959 29 1039 20 147 136
293 294 372 114 56 171 69 291 66 83 -2 109 -7 155 -28z m-3725 -42 l80 -12
-3 -295 c-3 -273 -2 -293 13 -275 9 11 93 136 187 279 l170 259 52 -6 c28 -4
102 -10 164 -13 62 -4 111 -10 110 -13 -2 -3 -97 -147 -212 -319 l-209 -313
102 -212 c56 -117 162 -327 236 -467 l133 -255 -31 -6 c-18 -4 -99 -9 -180
-13 l-148 -5 -98 202 c-54 112 -122 255 -151 319 -29 65 -57 115 -60 113 -4
-3 -26 -36 -49 -74 l-41 -69 0 -266 0 -265 -32 -6 c-47 -8 -249 -35 -262 -35
-8 0 -9 204 -5 702 4 387 7 786 8 887 l1 183 73 -7 c39 -4 108 -12 152 -18z
m2712 -374 c-3 -181 -11 -556 -18 -836 l-13 -508 -56 7 c-30 3 -102 11 -160
17 l-105 12 -40 100 c-23 55 -110 282 -195 505 l-155 405 -6 -100 c-4 -55 -10
-277 -14 -493 l-8 -394 -30 6 c-16 3 -83 6 -148 6 l-119 0 0 193 c0 105 5 454
12 774 l12 582 160 3 c89 2 166 1 173 0 19 -6 147 -347 298 -797 43 -126 81
-234 86 -239 4 -4 8 43 8 106 1 62 6 260 11 438 5 179 10 368 10 421 l0 97
113 9 c61 6 129 11 151 11 l39 2 -6 -327z m-1318 270 c3 -2 -1 -261 -7 -576
-7 -314 -12 -659 -12 -764 l0 -193 -157 0 -156 0 6 258 c4 141 10 484 13 762
3 278 7 511 10 518 3 9 37 11 151 6 81 -4 150 -8 152 -11z"/>
</g>
</svg>
